<?xml version="1.0" encoding="UTF-8" standalone="no"?>
<!-- Created with Inkscape (http://www.inkscape.org/) -->

<svg
   version="1.1"
   id="svg1"
   width="138.58707"
   height="43.486694"
   viewBox="0 0 138.58707 43.486694"
   xmlns="http://www.w3.org/2000/svg"
   xmlns:svg="http://www.w3.org/2000/svg">
  <defs
     id="defs1" />
  <g
     id="g1"
     transform="translate(-388.0569,-277.61017)">
    <path
       id="path74"
       d="m 323.854,92.7564 c 0.315,7.1277 -2.821,10.2846 -7.035,8.5416 -4.256,-1.7614 -6.794,-7.2867 -8.857,-11.3318 -2.215,3.6119 -4.669,5.5408 -8.26,4.0037 -4.592,-1.9659 -8.318,-8.4256 -8.639,-15.6772 -0.316,-7.1276 3.102,-10.4071 7.11,-8.6914 3.841,1.6443 6.458,6.1696 9.076,11.6688 2.938,-4.8838 5.661,-5.3598 8.249,-4.2517 3.966,1.6979 8.01,7.9286 8.353,15.6761 z M 298.865,75.0662 c -2.546,-1.0902 -4.288,1.2045 -4.128,4.7993 0.186,4.2146 2.108,7.8342 4.571,8.8886 3.047,1.3047 4.48,-1.487 6.191,-4.4635 -1.757,-3.61 -4.003,-8.0984 -6.592,-9.2065 z m 17.35,20.9263 c 2.547,1.0902 4.088,-1.1079 3.904,-5.2606 -0.134,-3.0369 -1.716,-7.3014 -4.304,-8.4095 -2.171,-0.9294 -3.683,0.0649 -6.247,4.1357 1.618,3.2466 3.85,8.3369 6.606,9.5165 z"
       style="fill:#000000;fill-opacity:1;fill-rule:nonzero;stroke:none"
       transform="matrix(1.3333333,0,0,-1.3333333,0,413.30133)" />
    <path
       id="path79"
       d="m 338.223,74.9116 h -12.09 v 20.7533 h 5.657 V 78.9523 h 6.433 z"
       style="fill:#000000;fill-opacity:1;fill-rule:evenodd;stroke:none"
       transform="matrix(1.3333333,0,0,-1.3333333,0,413.30133)" />
    <path
       id="path80"
       d="m 339.269,74.8898 h 5.49542 V 91.0205 H 339.269 Z m -0.097,17.747 h 5.68938 v 3.87912 H 339.172 Z"
       style="fill:#000000;fill-opacity:1;fill-rule:evenodd;stroke:none"
       transform="matrix(1.3333333,0,0,-1.3333333,0,413.30133)" />
    <path
       id="path81"
       d="M 351.286,86.0317 V 74.9116 h -5.495 v 16.1307 h 5.398 v -2.074 c 0.117,0.4976 0.338,0.9196 0.663,1.2658 0.506,0.5388 1.266,0.8082 2.279,0.8082 h 0.582 c 1.53,0 2.629,-0.3664 3.297,-1.0991 0.257,-0.2821 0.465,-0.5994 0.623,-0.9518 0.123,0.457 0.373,0.8551 0.751,1.1942 0.636,0.5711 1.46,0.8567 2.473,0.8567 h 0.582 c 1.53,0 2.629,-0.3664 3.297,-1.0991 0.668,-0.7327 1.002,-1.7025 1.002,-2.9093 V 74.9116 h -5.495 v 11.3788 c 0,0.237 -0.065,0.4148 -0.194,0.5333 -0.13,0.1186 -0.334,0.1778 -0.614,0.1778 h -0.55 c -0.28,0 -0.496,-0.0754 -0.646,-0.2263 -0.151,-0.1508 -0.227,-0.3986 -0.227,-0.7435 V 74.9116 h -5.495 v 11.3788 c 0,0.237 -0.065,0.4148 -0.194,0.5333 -0.129,0.1186 -0.334,0.1778 -0.614,0.1778 h -0.55 c -0.28,0 -0.496,-0.0754 -0.646,-0.2263 -0.151,-0.1508 -0.227,-0.3986 -0.227,-0.7435 z"
       style="fill:#000000;fill-opacity:1;fill-rule:evenodd;stroke:none"
       transform="matrix(1.3333333,0,0,-1.3333333,0,413.30133)" />
    <path
       id="path82"
       d="m 373.125,76.9856 v -2.074 h -5.399 v 21.6261 h 5.496 V 89.3 c 0.126,0.3562 0.315,0.6676 0.565,0.9341 0.507,0.5388 1.267,0.8082 2.279,0.8082 h 0.582 c 1.53,0 2.629,-0.3664 3.298,-1.0991 0.668,-0.7327 1.002,-1.7025 1.002,-2.9093 V 78.92 c 0,-1.2068 -0.334,-2.1766 -1.002,-2.9093 -0.669,-0.7327 -1.768,-1.0991 -3.298,-1.0991 h -0.582 c -1.012,0 -1.772,0.2694 -2.279,0.8081 -0.325,0.3463 -0.546,0.7683 -0.662,1.2659 z m 0.097,9.0461 v -6.1096 c 0,-0.3448 0.075,-0.5926 0.226,-0.7435 0.151,-0.1508 0.366,-0.2263 0.647,-0.2263 h 0.549 c 0.28,0 0.485,0.0593 0.614,0.1778 0.13,0.1186 0.194,0.2964 0.194,0.5334 v 6.6269 c 0,0.237 -0.064,0.4148 -0.194,0.5333 -0.129,0.1186 -0.334,0.1778 -0.614,0.1778 h -0.549 c -0.281,0 -0.496,-0.0754 -0.647,-0.2263 -0.151,-0.1508 -0.226,-0.3986 -0.226,-0.7435 z"
       style="fill:#000000;fill-opacity:1;fill-rule:evenodd;stroke:none"
       transform="matrix(1.3333333,0,0,-1.3333333,0,413.30133)" />
    <path
       id="path83"
       d="m 381.697,78.92 v 8.1139 c 0,1.2068 0.334,2.1766 1.002,2.9093 0.668,0.7327 1.864,1.0991 3.588,1.0991 h 4.106 c 1.724,0 2.92,-0.3664 3.588,-1.0991 0.668,-0.7327 1.002,-1.7025 1.002,-2.9093 V 78.92 c 0,-1.2068 -0.334,-2.1766 -1.002,-2.9093 -0.668,-0.7327 -1.864,-1.0991 -3.588,-1.0991 h -4.106 c -1.724,0 -2.92,0.3664 -3.588,1.0991 -0.668,0.7327 -1.002,1.7025 -1.002,2.9093 z m 7.079,8.3078 h -0.872 c -0.28,0 -0.485,-0.0593 -0.615,-0.1778 -0.129,-0.1185 -0.193,-0.2963 -0.193,-0.5334 v -7.0794 c 0,-0.237 0.064,-0.4148 0.193,-0.5333 0.13,-0.1186 0.335,-0.1778 0.615,-0.1778 h 0.872 c 0.281,0 0.485,0.0592 0.615,0.1778 0.129,0.1185 0.194,0.2963 0.194,0.5333 v 7.0794 c 0,0.2371 -0.065,0.4149 -0.194,0.5334 -0.13,0.1185 -0.334,0.1778 -0.615,0.1778 z"
       style="fill:#000000;fill-opacity:1;fill-rule:evenodd;stroke:none"
       transform="matrix(1.3333333,0,0,-1.3333333,0,413.30133)" />
  </g>
</svg>
