<?xml version="1.0" encoding="UTF-8" standalone="no"?>
<!-- Created with Inkscape (http://www.inkscape.org/) -->

<svg
   version="1.1"
   id="svg1"
   width="63.940018"
   height="63.939331"
   viewBox="0 0 63.940018 63.939331"
   xmlns="http://www.w3.org/2000/svg"
   xmlns:svg="http://www.w3.org/2000/svg">
  <defs
     id="defs1" />
  <g
     id="g1"
     transform="translate(-229.50932,-277.32935)">
    <path
       id="path93"
       d="m 204.087,101.979 c 4.244,0 8.313,-1.685 11.314,-4.6859 3,-3.0006 4.686,-7.0703 4.686,-11.3137 V 70.0245 c 0,-4.2434 -1.686,-8.3131 -4.686,-11.3137 -3.001,-3.0006 -7.07,-4.6863 -11.314,-4.6863 h -15.955 c -4.243,0 -8.313,1.6857 -11.313,4.6863 -3.001,3.0006 -4.687,7.0703 -4.687,11.3137 v 15.9549 c 0,4.2434 1.686,8.3131 4.687,11.3137 3,3.0009 7.07,4.6859 11.313,4.6859 z"
       style="fill:#2cb892;fill-opacity:1;fill-rule:evenodd;stroke:none"
       transform="matrix(1.3333333,0,0,-1.3333333,0,413.30133)" />
    <path
       id="path94"
       d="m 212.504,85.2977 c 0.316,7.1276 -2.821,10.2843 -7.035,8.5411 -4.255,-1.761 -6.793,-7.2863 -8.856,-11.3314 -2.216,3.6119 -4.67,5.5408 -8.26,4.0037 -4.592,-1.9659 -8.319,-8.4256 -8.64,-15.6772 -0.315,-7.1276 3.103,-10.4071 7.111,-8.6913 3.84,1.6442 6.457,6.1696 9.076,11.6687 2.937,-4.8838 5.66,-5.3598 8.249,-4.2517 3.966,1.6979 8.01,7.9287 8.353,15.6761 z M 187.516,67.6074 c -2.547,-1.0902 -4.288,1.2045 -4.129,4.7993 0.187,4.2146 2.108,7.8342 4.571,8.8887 3.048,1.3047 4.481,-1.487 6.192,-4.4635 -1.757,-3.6101 -4.004,-8.0985 -6.592,-9.2066 z m 17.35,20.9263 c 2.547,1.0902 4.087,-1.1079 3.904,-5.2605 -0.135,-3.037 -1.716,-7.3015 -4.304,-8.4096 -2.171,-0.9293 -3.684,0.065 -6.247,4.1358 1.618,3.2465 3.85,8.3368 6.605,9.5164 z"
       style="fill:#efffef;fill-opacity:1;fill-rule:nonzero;stroke:none"
       transform="matrix(1.3333333,0,0,-1.3333333,0,413.30133)" />
  </g>
</svg>
